<svg id="instagram_color" data-name="instagram color" xmlns="http://www.w3.org/2000/svg" width="800" height="400" viewBox="0 0 800 400">
  <defs>
    <style>
      .cls-1, .cls-2, .cls-4 {
        fill-rule: evenodd;
      }

      .cls-2 {
        fill: #fff;
      }

      .cls-3 {
        fill: #ea4c89;
      }

      .cls-4 {
        fill: #c32361;
      }
    </style>
  </defs>
  <path id="instagram_copy_2" data-name="instagram copy 2" class="cls-1" d="M100,316.668a16.672,16.672,0,1,1,11.784-4.883A16.059,16.059,0,0,1,100,316.668Zm0-42.32a25.652,25.652,0,1,0,18.164,43.817A25.653,25.653,0,0,0,100,274.348Zm26.693-7.031a6,6,0,1,0,4.232,1.758A5.768,5.768,0,0,0,126.7,267.317Zm-14.844-8.366q2.345,0.033,6.283.195a51.818,51.818,0,0,1,6.706.651A26.223,26.223,0,0,1,129.5,261a17.046,17.046,0,0,1,9.5,9.5,26.223,26.223,0,0,1,1.205,4.655,51.818,51.818,0,0,1,.651,6.706q0.162,3.94.195,6.283t0,6.869q-0.033,4.525-.032,4.98t0.032,4.981q0.032,4.525,0,6.869t-0.195,6.282a51.746,51.746,0,0,1-.651,6.706A26.131,26.131,0,0,1,139,329.493,17.043,17.043,0,0,1,129.5,339a26.058,26.058,0,0,1-4.655,1.2,51.448,51.448,0,0,1-6.706.652q-3.94.162-6.283,0.195t-6.869,0q-4.525-.033-4.98-0.033t-4.981.033q-4.526.033-6.869,0t-6.283-.195a51.386,51.386,0,0,1-6.706-.652,25.992,25.992,0,0,1-4.655-1.2A17.044,17.044,0,0,1,61,329.493a26,26,0,0,1-1.2-4.655,51.428,51.428,0,0,1-.651-6.706q-0.163-3.937-.2-6.282t0-6.869q0.032-4.524.033-4.981t-0.033-4.98q-0.034-4.525,0-6.869t0.2-6.283a51.5,51.5,0,0,1,.651-6.706,26.09,26.09,0,0,1,1.2-4.655,17.046,17.046,0,0,1,9.506-9.5,26.155,26.155,0,0,1,4.655-1.2,51.755,51.755,0,0,1,6.706-.651q3.938-.162,6.283-0.195t6.869,0q4.524,0.033,4.981.032t4.98-.032Q109.506,258.918,111.851,258.951Zm37.827,20.411Q149.026,265.82,141.6,258.4t-20.965-8.073Q114.91,250,100,250t-20.639.325Q65.82,250.977,58.4,258.4t-8.073,20.965Q50,285.092,50,300t0.325,20.639q0.65,13.542,8.073,20.964t20.964,8.073Q85.091,350,100,350t20.638-.326q13.542-.651,20.965-8.073t8.073-20.964Q150,314.91,150,300t-0.325-20.638h0Z"/>
  <path id="instagram_copy" data-name="instagram copy" class="cls-2" d="M500,116.668a16.666,16.666,0,0,1-11.785-28.452,16.666,16.666,0,1,1,23.569,23.569A16.06,16.06,0,0,1,500,116.668Zm0-42.32A25.563,25.563,0,0,0,474.35,100a25.652,25.652,0,1,0,43.816-18.164A24.736,24.736,0,0,0,500,74.348ZM526.7,67.317a6,6,0,1,0,4.232,1.758A5.768,5.768,0,0,0,526.7,67.317Zm-14.844-8.366q2.345,0.034,6.283.2a51.71,51.71,0,0,1,6.706.651A26.166,26.166,0,0,1,529.5,61a17.045,17.045,0,0,1,9.5,9.505,26.2,26.2,0,0,1,1.205,4.655,51.793,51.793,0,0,1,.651,6.706q0.162,3.94.2,6.283t0,6.869q-0.033,4.526-.032,4.98t0.032,4.981q0.031,4.526,0,6.869t-0.2,6.282a51.746,51.746,0,0,1-.651,6.706A26.131,26.131,0,0,1,539,129.493,17.043,17.043,0,0,1,529.5,139a26.058,26.058,0,0,1-4.655,1.2,51.448,51.448,0,0,1-6.706.652q-3.941.162-6.283,0.2t-6.869,0q-4.526-.033-4.98-0.033t-4.981.033q-4.526.033-6.869,0t-6.282-.2a51.376,51.376,0,0,1-6.706-.652,26,26,0,0,1-4.656-1.2,17.043,17.043,0,0,1-9.5-9.506,26.046,26.046,0,0,1-1.2-4.655,51.569,51.569,0,0,1-.651-6.706q-0.162-3.937-.195-6.282t0-6.869q0.032-4.524.033-4.981t-0.033-4.98q-0.033-4.524,0-6.869t0.195-6.283a51.616,51.616,0,0,1,.651-6.706,26.116,26.116,0,0,1,1.2-4.655,17.045,17.045,0,0,1,9.5-9.505,26.111,26.111,0,0,1,4.656-1.2,51.638,51.638,0,0,1,6.706-.651q3.938-.162,6.282-0.2t6.869,0q4.524,0.034,4.981.032t4.98-.032Q509.506,58.919,511.851,58.951Zm37.827,20.411q-0.652-13.541-8.073-20.964T520.64,50.324Q514.91,50,500,50t-20.639.325Q465.82,50.976,458.4,58.4t-8.074,20.964Q450,85.091,450,100t0.325,20.639q0.651,13.542,8.074,20.964t20.964,8.073Q485.092,150,500,150t20.638-.326q13.542-.651,20.965-8.073t8.073-20.964Q550,114.91,550,100t-0.325-20.638h0Z"/>
  <path id="instagram" class="cls-1" d="M100,116.668A16.666,16.666,0,0,1,88.217,88.216a16.666,16.666,0,1,1,23.569,23.569A16.06,16.06,0,0,1,100,116.668Zm0-42.32A25.564,25.564,0,0,0,74.35,100,25.563,25.563,0,0,0,100,125.652,25.564,25.564,0,0,0,125.654,100,25.565,25.565,0,0,0,100,74.348ZM126.7,67.317a6,6,0,1,0,4.232,1.758A5.768,5.768,0,0,0,126.7,67.317Zm-14.844-8.366q2.345,0.034,6.283.2a51.71,51.71,0,0,1,6.706.651A26.166,26.166,0,0,1,129.5,61a17.045,17.045,0,0,1,9.5,9.505,26.2,26.2,0,0,1,1.205,4.655,51.793,51.793,0,0,1,.651,6.706q0.162,3.94.195,6.283t0,6.869q-0.033,4.526-.032,4.98t0.032,4.981q0.032,4.526,0,6.869t-0.195,6.282a51.746,51.746,0,0,1-.651,6.706A26.131,26.131,0,0,1,139,129.493,17.043,17.043,0,0,1,129.5,139a26.058,26.058,0,0,1-4.655,1.2,51.448,51.448,0,0,1-6.706.652q-3.94.162-6.283,0.2t-6.869,0q-4.525-.033-4.98-0.033t-4.981.033q-4.526.033-6.869,0t-6.283-.2a51.386,51.386,0,0,1-6.706-.652,25.992,25.992,0,0,1-4.655-1.2A17.044,17.044,0,0,1,61,129.493a26,26,0,0,1-1.2-4.655,51.428,51.428,0,0,1-.651-6.706q-0.163-3.937-.2-6.282t0-6.869q0.032-4.524.033-4.981t-0.033-4.98q-0.034-4.524,0-6.869t0.2-6.283a51.474,51.474,0,0,1,.651-6.706A26.068,26.068,0,0,1,61,70.507,17.046,17.046,0,0,1,70.509,61a26.1,26.1,0,0,1,4.655-1.2,51.647,51.647,0,0,1,6.706-.651q3.938-.162,6.283-0.2t6.869,0q4.524,0.034,4.981.032t4.98-.032Q109.506,58.919,111.851,58.951Zm37.827,20.411Q149.026,65.821,141.6,58.4T120.64,50.324Q114.91,50,100,50t-20.639.325Q65.82,50.976,58.4,58.4T50.326,79.362Q50,85.091,50,100t0.325,20.639q0.65,13.542,8.073,20.964t20.964,8.073Q85.091,150,100,150t20.638-.326q13.542-.651,20.965-8.073t8.073-20.964Q150,114.91,150,100t-0.325-20.638h0Z"/>
  <circle class="cls-3" cx="300" cy="300" r="46"/>
  <path id="dribble_copy_2" data-name="dribble copy 2" class="cls-4" d="M300,342.7a41.9,41.9,0,0,1-27.214-9.764l0.976,0.716a34.884,34.884,0,0,1,6.706-9.634A56.463,56.463,0,0,1,289,316.567a83.488,83.488,0,0,1,8.92-5.338q4.817-2.5,6.575-3.19t2.8-1.074l0.13-.065h0.13a175.983,175.983,0,0,1,9.115,32.417A42.7,42.7,0,0,1,300,342.7h0Zm3.776-42.605c-0.391.109-.673,0.186-0.846,0.228l-2.409.847a50.1,50.1,0,0,0-6.478,3.124q-4,2.214-8.5,5.273a58.26,58.26,0,0,0-9.278,8.1,54.61,54.61,0,0,0-8.041,10.839,42.752,42.752,0,0,1-8.073-13.117A41.878,41.878,0,0,1,257.292,300a10.422,10.422,0,0,1,.065-1.367,152.325,152.325,0,0,0,43.816-6.054q2.082,4.036,3.45,7.226A4.993,4.993,0,0,1,303.777,300.1ZM258.2,291.212A42.862,42.862,0,0,1,281.771,261.4,224.025,224.025,0,0,1,297.657,286a154.46,154.46,0,0,1-39.454,5.208h0Zm77.736,31.864A42.663,42.663,0,0,1,323.9,335.412a183.553,183.553,0,0,0-8.334-30.53,61.529,61.529,0,0,1,26.628,1.888A42.087,42.087,0,0,1,335.939,323.076ZM289.649,258.6a0.193,0.193,0,0,1,.13-0.065,0.193,0.193,0,0,0-.13.065h0Zm37.729,10.513a28.222,28.222,0,0,1-2.442,2.636,41.924,41.924,0,0,1-4.264,3.711,57.122,57.122,0,0,1-6.283,4,60.525,60.525,0,0,1-8.463,3.939,185.981,185.981,0,0,0-16.016-24.867A43.087,43.087,0,0,1,300,257.3a41.162,41.162,0,0,1,28.191,10.676Q327.865,268.429,327.378,269.112Zm14.681,30.3q-0.651-.129-1.628-0.293l-2.376-.391q-1.4-.226-3.125-0.423t-3.678-.358q-1.954-.161-4.167-0.26t-4.492-.1q-2.28,0-4.786.131t-4.85.455a7.705,7.705,0,0,1-.488-1.074c-0.2-.5-0.337-0.879-0.424-1.139q-1.238-2.734-2.864-6.184a71.98,71.98,0,0,0,15.072-8.43,53.971,53.971,0,0,0,4.622-3.938,37.314,37.314,0,0,0,2.832-2.9q0.651-.813,1.237-1.595l0.065-.065a41.765,41.765,0,0,1,9.7,26.689Zm-16.96-42.7a50.332,50.332,0,0,0-50.2,0,49.781,49.781,0,0,0-18.2,18.195,50.3,50.3,0,0,0,0,50.188,49.756,49.756,0,0,0,18.2,18.194,50.326,50.326,0,0,0,50.2,0,49.771,49.771,0,0,0,18.2-18.194,50.3,50.3,0,0,0,0-50.188A49.8,49.8,0,0,0,325.1,256.711Z"/>
  <path id="dribble_copy" data-name="dribble copy" class="cls-2" d="M700,142.7a41.9,41.9,0,0,1-27.214-9.764l0.976,0.716a34.884,34.884,0,0,1,6.706-9.634A56.463,56.463,0,0,1,689,116.567a83.488,83.488,0,0,1,8.92-5.338q4.817-2.505,6.575-3.19t2.8-1.074l0.13-.065h0.13a175.983,175.983,0,0,1,9.115,32.417A42.7,42.7,0,0,1,700,142.7h0Zm3.776-42.6c-0.391.109-.673,0.186-0.846,0.228l-2.409.847a50.1,50.1,0,0,0-6.478,3.124q-4,2.214-8.5,5.273a58.26,58.26,0,0,0-9.278,8.1,54.61,54.61,0,0,0-8.041,10.839,42.752,42.752,0,0,1-8.073-13.117,41.878,41.878,0,0,1-2.864-15.4,10.422,10.422,0,0,1,.065-1.367,152.328,152.328,0,0,0,43.816-6.054q2.082,4.037,3.45,7.226A4.967,4.967,0,0,1,703.777,100.1ZM658.2,91.212A42.861,42.861,0,0,1,681.771,61.4,223.922,223.922,0,0,1,697.657,86,154.486,154.486,0,0,1,658.2,91.212h0Zm77.736,31.864A42.663,42.663,0,0,1,723.9,135.412a183.553,183.553,0,0,0-8.334-30.53,61.529,61.529,0,0,1,26.628,1.888A42.087,42.087,0,0,1,735.939,123.076ZM689.649,58.6a0.19,0.19,0,0,1,.13-0.065,0.19,0.19,0,0,0-.13.065h0Zm37.729,10.513a28.367,28.367,0,0,1-2.442,2.636,41.894,41.894,0,0,1-4.264,3.71,57.191,57.191,0,0,1-6.283,4,60.488,60.488,0,0,1-8.463,3.938A186,186,0,0,0,689.91,58.534,43.1,43.1,0,0,1,700,57.3a41.163,41.163,0,0,1,28.191,10.676Zm14.681,30.3q-0.651-.13-1.628-0.293l-2.376-.39q-1.4-.227-3.125-0.423t-3.678-.358q-1.955-.162-4.167-0.26t-4.492-.1q-2.28,0-4.786.13t-4.85.456a7.782,7.782,0,0,1-.488-1.074q-0.294-.748-0.424-1.139-1.237-2.734-2.864-6.184a71.95,71.95,0,0,0,15.072-8.43,53.883,53.883,0,0,0,4.622-3.938,37.175,37.175,0,0,0,2.832-2.9q0.651-.813,1.237-1.595l0.065-.065a41.764,41.764,0,0,1,9.7,26.689Zm-16.96-42.7a50.326,50.326,0,0,0-50.2,0,49.773,49.773,0,0,0-18.2,18.194,50.3,50.3,0,0,0,0,50.188,49.756,49.756,0,0,0,18.2,18.194,50.326,50.326,0,0,0,50.2,0,49.771,49.771,0,0,0,18.2-18.194,50.3,50.3,0,0,0,0-50.188A49.789,49.789,0,0,0,725.1,56.712Z"/>
  <path id="dribble" class="cls-1" d="M300,142.7a41.9,41.9,0,0,1-27.214-9.764l0.976,0.716a34.884,34.884,0,0,1,6.706-9.634A56.463,56.463,0,0,1,289,116.567a83.488,83.488,0,0,1,8.92-5.338q4.817-2.505,6.575-3.19t2.8-1.074l0.13-.065h0.13a175.983,175.983,0,0,1,9.115,32.417A42.7,42.7,0,0,1,300,142.7h0Zm3.776-42.6c-0.391.109-.673,0.186-0.846,0.228l-2.409.847a50.1,50.1,0,0,0-6.478,3.124q-4,2.214-8.5,5.273a58.26,58.26,0,0,0-9.278,8.1,54.61,54.61,0,0,0-8.041,10.839,42.752,42.752,0,0,1-8.073-13.117,41.878,41.878,0,0,1-2.864-15.4,10.422,10.422,0,0,1,.065-1.367,152.328,152.328,0,0,0,43.816-6.054q2.082,4.037,3.45,7.226A4.967,4.967,0,0,1,303.777,100.1ZM258.2,91.212A42.861,42.861,0,0,1,281.771,61.4,223.922,223.922,0,0,1,297.657,86,154.486,154.486,0,0,1,258.2,91.212h0Zm77.736,31.864A42.663,42.663,0,0,1,323.9,135.412a183.553,183.553,0,0,0-8.334-30.53,61.529,61.529,0,0,1,26.628,1.888A42.087,42.087,0,0,1,335.939,123.076ZM289.649,58.6a0.19,0.19,0,0,1,.13-0.065,0.19,0.19,0,0,0-.13.065h0Zm37.729,10.513a28.367,28.367,0,0,1-2.442,2.636,41.894,41.894,0,0,1-4.264,3.71,57.191,57.191,0,0,1-6.283,4,60.488,60.488,0,0,1-8.463,3.938A186,186,0,0,0,289.91,58.534,43.1,43.1,0,0,1,300,57.3a41.163,41.163,0,0,1,28.191,10.676Zm14.681,30.3q-0.651-.13-1.628-0.293l-2.376-.39q-1.4-.227-3.125-0.423t-3.678-.358q-1.954-.162-4.167-0.26t-4.492-.1q-2.28,0-4.786.13t-4.85.456a7.782,7.782,0,0,1-.488-1.074q-0.294-.748-0.424-1.139-1.238-2.734-2.864-6.184a71.95,71.95,0,0,0,15.072-8.43,53.883,53.883,0,0,0,4.622-3.938,37.175,37.175,0,0,0,2.832-2.9q0.651-.813,1.237-1.595l0.065-.065a41.764,41.764,0,0,1,9.7,26.689Zm-16.96-42.7a50.326,50.326,0,0,0-50.2,0,49.773,49.773,0,0,0-18.2,18.194,50.3,50.3,0,0,0,0,50.188,49.756,49.756,0,0,0,18.2,18.194,50.326,50.326,0,0,0,50.2,0,49.771,49.771,0,0,0,18.2-18.194,50.3,50.3,0,0,0,0-50.188A49.789,49.789,0,0,0,325.1,56.712Z"/>
</svg>
